osimModel_states
nRows=31
nColumns=17

# SIMM Motion File Header:
name osimModel_states
datacolumns 17
datarows 31
otherdata 1
range 0.99296729 1.17723620
endheader
time	blockToGround_xRotation	blockToGround_yRotation	blockToGround_zRotation	blockToGround_xTranslation	blockToGround_yTranslation	blockToGround_zTranslation	blockToGround_xRotation_u	blockToGround_yRotation_u	blockToGround_zRotation_u	blockToGround_xTranslation_u	blockToGround_yTranslation_u	blockToGround_zTranslation_u	muscle1.activation	muscle1.fiber_length	muscle2.activation	muscle2.fiber_length
      0.99296729	     -0.17587867	      0.00076465	      0.00387958	      0.00001086	     -0.00023755	      0.01344363	     -0.00084833	      0.00700125	     -0.00002737	     -0.00001255	      0.00136511	     -0.44482547	      0.35937649	      0.11127906	      0.00004318	      0.08538996
      0.99913682	     -0.17588339	      0.00080785	      0.00387946	      0.00001078	     -0.00022913	      0.01070011	     -0.00022596	      0.00699208	     -0.00005234	     -0.00001228	      0.00136362	     -0.44417117	      0.36415461	      0.10854608	      0.00003701	      0.08834430
      1.00530634	     -0.17588629	      0.00085097	      0.00387924	      0.00001071	     -0.00022072	      0.00795986	     -0.00109047	      0.00699244	     -0.00005822	     -0.00001193	      0.00136384	     -0.44438487	      0.36936073	      0.10581402	      0.00003172	      0.09086332
      1.01147587	     -0.17589263	      0.00089402	      0.00387904	      0.00001063	     -0.00021231	      0.00522033	     -0.00043614	      0.00695071	     -0.00004524	     -0.00001162	      0.00136095	     -0.44327304	      0.37429105	      0.10308542	      0.00002719	      0.09383758
      1.01764540	     -0.17589695	      0.00093681	      0.00387896	      0.00001056	     -0.00020392	      0.00248674	     -0.00136457	      0.00692496	     -0.00002612	     -0.00001123	      0.00136020	     -0.44314879	      0.37969241	      0.10036005	      0.00002330	      0.09632663
      1.02381493	     -0.17590474	      0.00097936	      0.00387900	      0.00001049	     -0.00019554	     -0.00024390	     -0.00056604	      0.00685778	     -0.00000144	     -0.00001090	      0.00135590	     -0.44158139	      0.38478420	      0.09764073	      0.00001997	      0.09931712
      1.02998446	     -0.17590978	      0.00102152	      0.00387918	      0.00001043	     -0.00018718	     -0.00296597	     -0.00149893	      0.00681301	      0.00001725	     -0.00001048	      0.00135420	     -0.44112517	      0.39039144	      0.09492687	      0.00001712	      0.10177082
      1.03615399	     -0.17591810	      0.00106332	      0.00387947	      0.00001036	     -0.00017884	     -0.00568288	     -0.00054188	      0.00672621	      0.00003346	     -0.00001013	      0.00134848	     -0.43911051	      0.39565520	      0.09222164	      0.00001467	      0.10477137
      1.04232352	     -0.17592294	      0.00110461	      0.00387982	      0.00001030	     -0.00017053	     -0.00838862	     -0.00148694	      0.00666627	      0.00003907	     -0.00000969	      0.00134582	     -0.43832264	      0.40147594	      0.08952407	      0.00001257	      0.10718684
      1.04849305	     -0.17593097	      0.00114546	      0.00388020	      0.00001024	     -0.00016224	     -0.01108702	     -0.00041721	      0.00656214	      0.00004177	     -0.00000934	      0.00133868	     -0.43587526	      0.40692284	      0.08683766	      0.00001078	      0.11018896
      1.05466257	     -0.17593510	      0.00118569	      0.00388057	      0.00001019	     -0.00015400	     -0.01377172	     -0.00140173	      0.00648729	      0.00003564	     -0.00000889	      0.00133506	     -0.43475130	      0.41296162	      0.08416105	      0.00000924	      0.11256544
      1.06083210	     -0.17594254	      0.00122538	      0.00388089	      0.00001013	     -0.00014578	     -0.01644689	     -0.00027437	      0.00636564	      0.00003036	     -0.00000854	      0.00132654	     -0.43188981	      0.41860278	      0.08149811	      0.00000792	      0.11555922
      1.06700163	     -0.17594590	      0.00126435	      0.00388117	      0.00001008	     -0.00013762	     -0.01910592	     -0.00130949	      0.00627463	      0.00002008	     -0.00000809	      0.00132194	     -0.43042297	      0.42486194	      0.07884707	      0.00000678	      0.11789714
      1.07317116	     -0.17595277	      0.00130268	      0.00388139	      0.00001003	     -0.00012948	     -0.02175322	     -0.00015926	      0.00613485	      0.00001437	     -0.00000776	      0.00131210	     -0.42716693	      0.43070764	      0.07621216	      0.00000581	      0.12087249
      1.07934069	     -0.17595552	      0.00134017	      0.00388157	      0.00000999	     -0.00012141	     -0.02438203	     -0.00123294	      0.00602682	      0.00000615	     -0.00000732	      0.00130652	     -0.42535102	      0.43718840	      0.07359122	      0.00000498	      0.12317228
      1.08551022	     -0.17596193	      0.00137692	      0.00388171	      0.00000994	     -0.00011338	     -0.02699690	     -0.00007101	      0.00586921	      0.00000403	     -0.00000701	      0.00129541	     -0.42171807	      0.44324725	      0.07098881	      0.00000427	      0.12612012
      1.09167975	     -0.17596417	      0.00141272	      0.00388183	      0.00000990	     -0.00010541	     -0.02959100	     -0.00116007	      0.00574450	     -0.00000032	     -0.00000659	      0.00128885	     -0.41955006	      0.44995074	      0.06840240	      0.00000366	      0.12838115
      1.09784928	     -0.17597010	      0.00144767	      0.00388194	      0.00000986	     -0.00009749	     -0.03216896	      0.00001600	      0.00557035	      0.00000097	     -0.00000631	      0.00127650	     -0.41555415	      0.45622911	      0.06583688	      0.00000314	      0.13129413
      1.10401880	     -0.17597180	      0.00148158	      0.00388205	      0.00000982	     -0.00008964	     -0.03472395	     -0.00106919	      0.00543026	     -0.00000098	     -0.00000593	      0.00126895	     -0.41303570	      0.46315683	      0.06328936	      0.00000269	      0.13351410
      1.11018833	     -0.17597712	      0.00151455	      0.00388214	      0.00000979	     -0.00008185	     -0.03726064	      0.00012748	      0.00524126	      0.00000154	     -0.00000568	      0.00125538	     -0.40868619	      0.46965854	      0.06076501	      0.00000230	      0.13638695
      1.11635786	     -0.17597809	      0.00154638	      0.00388225	      0.00000975	     -0.00007413	     -0.03977219	     -0.00094681	      0.00508742	     -0.00000028	     -0.00000533	      0.00124686	     -0.40582435	      0.47681270	      0.05826060	      0.00000198	      0.13856159
      1.12252739	     -0.17598259	      0.00157719	      0.00388235	      0.00000972	     -0.00006648	     -0.04226333	      0.00027808	      0.00488505	      0.00000156	     -0.00000513	      0.00123208	     -0.40112554	      0.48353891	      0.05578164	      0.00000169	      0.14139133
      1.12869692	     -0.17598259	      0.00160679	      0.00388244	      0.00000969	     -0.00005891	     -0.04472720	     -0.00079138	      0.00471897	     -0.00000147	     -0.00000482	      0.00122262	     -0.39793311	      0.49092258	      0.05332449	      0.00000145	      0.14351425
      1.13486645	     -0.17598608	      0.00163529	      0.00388252	      0.00000966	     -0.00005141	     -0.04716861	      0.00047316	      0.00450424	     -0.00000095	     -0.00000467	      0.00120661	     -0.39288378	      0.49787179	      0.05089501	      0.00000124	      0.14630033
      1.14103598	     -0.17598487	      0.00166251	      0.00388259	      0.00000963	     -0.00004400	     -0.04958064	     -0.00060803	      0.00432722	     -0.00000531	     -0.00000440	      0.00119627	     -0.38937975	      0.50548920	      0.04848915	      0.00000107	      0.14836281
      1.14720551	     -0.17598716	      0.00168856	      0.00388263	      0.00000961	     -0.00003666	     -0.05196827	      0.00071597	      0.00410068	     -0.00000576	     -0.00000430	      0.00117900	     -0.38397237	      0.51265714	      0.04611318	      0.00000091	      0.15110749
      1.15275308	     -0.17598517	      0.00171083	      0.00388265	      0.00000958	     -0.00003015	     -0.05408845	     -0.00018968	      0.00393130	     -0.00001002	     -0.00000411	      0.00116880	     -0.38050612	      0.51966660	      0.04399846	      0.00000080	      0.15292651
      1.15830065	     -0.17598515	      0.00173210	      0.00388266	      0.00000956	     -0.00002371	     -0.05618685	      0.00036747	      0.00373119	     -0.00001168	     -0.00000403	      0.00115418	     -0.37585864	      0.52642232	      0.04190876	      0.00000069	      0.15515065
      1.16508649	     -0.17598240	      0.00175661	      0.00388264	      0.00000954	     -0.00001593	     -0.05871911	      0.00004908	      0.00349971	     -0.00001571	     -0.00000390	      0.00113853	     -0.37073169	      0.53506234	      0.03938411	      0.00000058	      0.15753862
      1.17116134	     -0.17598088	      0.00177719	      0.00388260	      0.00000951	     -0.00000907	     -0.06095541	      0.00092001	      0.00326671	     -0.00001751	     -0.00000389	      0.00112072	     -0.36514789	      0.54266104	      0.03715700	      0.00000050	      0.15998490
      1.17723620	     -0.17597594	      0.00179638	      0.00388254	      0.00000949	     -0.00000230	     -0.06315871	      0.00033386	      0.00305635	     -0.00002207	     -0.00000381	      0.00110668	     -0.36048015	      0.55070651	      0.03495897	      0.00000043	      0.16196559
